<svg xmlns="http://www.w3.org/2000/svg" width="207" height="207" viewBox="0 0 207 207">
	<defs>
		<style>.nils-logo-a{fill:rgba(255,255,255,0);stroke:#00bcd9;stroke-width:6px;}.nils-logo-b{fill:currentcolor;}.nils-logo-c{fill:#00bcd9;}.nils-logo-d{stroke:none;}.nils-logo-e{fill:none;}</style>
	</defs>
	<g transform="translate(-166 -172)">
		<g class="nils-logo-a" transform="translate(166 172)">
			<circle class="nils-logo-d" cx="103.5" cy="103.5" r="103.5"/>
			<circle class="nils-logo-e" cx="103.5" cy="103.5" r="100.5"/>
		</g>
		<g transform="translate(192.999 251)">
			<g transform="translate(0 0)">
				<path class="nils-logo-b" d="M41.743,49.14V31.271a45.794,45.794,0,0,0-1.295-13.208,13.6,13.6,0,0,0-5.956-8.287A16.58,16.58,0,0,0,24.133,6.928,16.58,16.58,0,0,0,13.774,9.776a13.846,13.846,0,0,0-5.956,7.769,79.85,79.85,0,0,0-.777,13.726V49.14H.049V29.717a43.519,43.519,0,0,1,2.59-17.351A18.784,18.784,0,0,1,10.925,3.3a29.111,29.111,0,0,1,26.933,0,21.516,21.516,0,0,1,8.287,9.064,46.8,46.8,0,0,1,2.59,17.869v18.9Z" transform="translate(0)"/>
			</g>
			<g transform="translate(75.834 0.453)">
				<path class="nils-logo-b" d="M38.645,34.877a13.846,13.846,0,0,0,7.769,5.956A34.792,34.792,0,0,0,59.1,42.128v6.992a45.5,45.5,0,0,1-17.61-2.59,18.784,18.784,0,0,1-9.064-8.287,24.613,24.613,0,0,1-3.108-13.467V.175h6.992V24.259a21.506,21.506,0,0,0,2.331,10.618" transform="translate(-29.283 -0.175)"/>
			</g>
			<g transform="translate(57.258 0.197)">
				<path class="nils-logo-c" d="M22.11.076h10.1l-2.072,49.2H24.182Z" transform="translate(-22.11 -0.076)"/>
			</g>
			<g transform="translate(57.514 55.759)">
				<path class="nils-logo-c" d="M27.129,21.531a4.92,4.92,0,1,1-4.92,4.92,5.113,5.113,0,0,1,1.554-3.626,4.923,4.923,0,0,1,3.367-1.295" transform="translate(-22.209 -21.531)"/>
			</g>
			<path class="nils-logo-b" d="M70.754,21.209h-8.74v0l-5.244,0c-.469,0-6.443-.557-6.443-6.839,0-6.961,5.987-7.275,6.324-7.275H82.4V.175H56.65A13.655,13.655,0,0,0,43.4,14.374c0,11.312,10.62,13.762,13.246,13.762h8.74v0l5.244,0c.388,0,6.443.557,6.443,6.839,0,6.961-5.941,7.272-6.324,7.272H45v6.925h25.75A13.654,13.654,0,0,0,84,34.97C84,23.659,73.38,21.209,70.754,21.209Z" transform="translate(69 0.278)"/>
		</g>
	</g>
</svg>