<svg xmlns="http://www.w3.org/2000/svg" width="124.416" height="25.316" viewBox="0 0 124.416 25.316">
	<defs>
		<style>.nucleix-logo-a{fill:currentcolor;}.nucleix-logo-b{fill:#00bcd9;}</style>
	</defs>
	<g transform="translate(-102.459 -993.941)">
		<g transform="translate(208.032 993.941)">
			<path class="nucleix-logo-a" d="M174.214,993.941a6.219,6.219,0,0,0,2.043,2.5,6.794,6.794,0,0,0,3.972,1.135,6.563,6.563,0,0,0,3.974-1.135,6.219,6.219,0,0,0,2.043-2.5H189.2c-.114.568-.341,1.022-.453,1.476a7.363,7.363,0,0,1-3.18,3.519,8.751,8.751,0,0,1-1.816.8,8.748,8.748,0,0,1,1.816.794,7.968,7.968,0,0,1,3.18,3.519,17.784,17.784,0,0,1,1.021,6.925v1.929h-2.725v-1.588a25.648,25.648,0,0,0-.341-5.109,5.38,5.38,0,0,0-2.27-3.178,6.785,6.785,0,0,0-3.972-1.137,6.555,6.555,0,0,0-3.974,1.137,5.8,5.8,0,0,0-2.27,2.951,22.855,22.855,0,0,0-.455,5.336v1.588h-2.837v-2.156a16.893,16.893,0,0,1,1.021-6.7,7.363,7.363,0,0,1,3.18-3.519,8.749,8.749,0,0,1,1.817-.794,8.751,8.751,0,0,1-1.817-.8,7.969,7.969,0,0,1-3.18-3.519,5.646,5.646,0,0,1-.453-1.476Z" transform="translate(-170.922 -993.941)"/>
		</g>
		<g transform="translate(179.993 993.941)">
			<path class="nucleix-logo-a" d="M155.351,1002H167.27v2.725H155.351a5.684,5.684,0,0,0,1.021,2.725,5.807,5.807,0,0,0,2.951,2.27,22.9,22.9,0,0,0,5.335.453h4.882v2.839h-5.335a16.861,16.861,0,0,1-6.7-1.023,7.359,7.359,0,0,1-3.519-3.178,9.382,9.382,0,0,1-1.249-5.222,11.23,11.23,0,0,1,1.249-5.335,8.246,8.246,0,0,1,3.633-3.178c1.362-.8,3.633-1.136,6.7-1.136h5.109v2.725h-4.882a17.4,17.4,0,0,0-5.107.455,5.907,5.907,0,0,0-3.178,2.27,13.973,13.973,0,0,0-.908,2.611" transform="translate(-152.739 -993.941)"/>
		</g>
		<g transform="translate(124.481 993.941)">
			<path class="nucleix-logo-a" d="M119.465,993.941v6.925a17.93,17.93,0,0,0,.453,5.109,5.393,5.393,0,0,0,2.27,3.178,6.8,6.8,0,0,0,3.974,1.135,6.568,6.568,0,0,0,3.974-1.135,5.814,5.814,0,0,0,2.27-2.952,22.886,22.886,0,0,0,.453-5.335v-6.925h2.725v7.493a16.889,16.889,0,0,1-1.021,6.7,7.362,7.362,0,0,1-3.18,3.519,10.433,10.433,0,0,1-5.221,1.249,10.132,10.132,0,0,1-5.221-1.249,7.968,7.968,0,0,1-3.18-3.519,17.781,17.781,0,0,1-1.021-6.924v-7.266Z" transform="translate(-116.74 -993.941)"/>
		</g>
		<g transform="translate(102.459 993.941)">
			<path class="nucleix-logo-a" d="M118.578,1012.9v-6.924a17.921,17.921,0,0,0-.453-5.109,5.392,5.392,0,0,0-2.27-3.178,6.792,6.792,0,0,0-3.974-1.135,6.549,6.549,0,0,0-3.972,1.135,5.808,5.808,0,0,0-2.271,2.951,22.888,22.888,0,0,0-.453,5.336v6.924h-2.725v-7.491a16.864,16.864,0,0,1,1.022-6.7,7.351,7.351,0,0,1,3.178-3.519,11.538,11.538,0,0,1,10.443,0,7.968,7.968,0,0,1,3.18,3.519,17.783,17.783,0,0,1,1.021,6.925v7.265Z" transform="translate(-102.459 -993.941)"/>
		</g>
		<g transform="translate(166.938 993.941)">
			<path class="nucleix-logo-a" d="M148.019,1007.451a5.382,5.382,0,0,0,2.951,2.27,12.412,12.412,0,0,0,4.881.453v2.725a17.518,17.518,0,0,1-6.81-1.021,7.372,7.372,0,0,1-3.52-3.18,10.45,10.45,0,0,1-1.248-5.221v-9.536H147v9.309a7.712,7.712,0,0,0,1.022,4.2" transform="translate(-144.273 -993.941)"/>
		</g>
		<g transform="translate(200.538 993.942)">
			<path class="nucleix-logo-b" d="M166.062,993.941h3.86l-.795,18.958h-2.27Z" transform="translate(-166.062 -993.941)"/>
		</g>
		<g transform="translate(200.537 1015.397)">
			<path class="nucleix-logo-b" d="M167.993,1007.855a1.938,1.938,0,1,1-1.363.568,1.878,1.878,0,0,1,1.363-.568" transform="translate(-166.062 -1007.855)"/>
		</g>
		<g transform="translate(146.506 993.941)">
			<path class="nucleix-logo-a" d="M147.824,996.78h-4.882a17.417,17.417,0,0,0-5.107.453,5.92,5.92,0,0,0-3.18,2.271,7.522,7.522,0,0,0,0,7.946,5.819,5.819,0,0,0,2.951,2.27,22.916,22.916,0,0,0,5.335.453h4.882v2.839h-5.335a16.853,16.853,0,0,1-6.7-1.023,7.362,7.362,0,0,1-3.52-3.178,9.382,9.382,0,0,1-1.248-5.222,10.907,10.907,0,0,1,1.248-5.335,8.255,8.255,0,0,1,3.633-3.178c1.363-.8,3.746-1.136,6.811-1.136h5.109Z" transform="translate(-131.023 -993.941)"/>
		</g>
	</g>
</svg>