<svg xmlns="http://www.w3.org/2000/svg" width="18.301" height="18.675" viewBox="0 0 18.301 18.675"><defs><style>.a{fill:currentColor;}</style></defs><g transform="translate(-190.557 -157)"><path class="a" d="M205.549,157H190.557v18.675h18.3V160.308Zm-10.567,1.05h8.7V163h-8.7Zm9.825,16.574H194.232V167.8h10.575Zm3,0h-1.949V166.75H193.182v7.874h-1.575V158.05h2.325v6h10.8v-6h.382l2.692,2.692Z"/><path class="a" d="M195.582,169.675h2.625a.526.526,0,0,0,0-1.051h-2.625a.526.526,0,0,0,0,1.051Z"/><path class="a" d="M195.582,171.175h3.75a.526.526,0,0,0,0-1.051h-3.75a.526.526,0,0,0,0,1.051Z"/><path class="a" d="M200.457,171.177a.526.526,0,1,0-.116-1.04v-.12l-.257.261a.528.528,0,0,0,0,.747A.539.539,0,0,0,200.457,171.177Z"/><path class="a" d="M200.682,162.55h2.551V158.5h-2.551Zm1.051-3h.449v1.95h-.449Z"/></g></svg>
