<?xml version="1.0" standalone="no"?>
<!DOCTYPE svg PUBLIC "-//W3C//DTD SVG 20010904//EN"
 "http://www.w3.org/TR/2001/REC-SVG-20010904/DTD/svg10.dtd">
<svg version="1.0" xmlns="http://www.w3.org/2000/svg"
 width="256.000000pt" height="257.000000pt" viewBox="0 0 256.000000 257.000000"
 preserveAspectRatio="xMidYMid meet">

<g transform="translate(0.000000,257.000000) scale(0.100000,-0.100000)"
fill="#000000" stroke="none">
<path d="M432 2309 c-26 -13 -55 -39 -70 -62 l-27 -41 -3 -804 -2 -805 25 -43
c15 -26 43 -54 69 -69 l43 -25 421 0 c394 0 421 -1 426 -18 9 -28 98 -116 157
-156 78 -53 162 -76 273 -76 148 0 251 41 354 139 105 101 152 212 152 360 0
99 -18 171 -61 248 -43 75 -137 164 -214 201 l-65 32 0 313 0 312 -258 258
-257 257 -460 0 c-450 0 -461 0 -503 -21z m938 -277 c5 -207 6 -225 24 -238
16 -11 65 -14 233 -14 l213 0 0 -285 0 -285 -88 0 c-146 0 -269 -49 -367 -147
l-53 -53 -351 0 c-339 0 -352 -1 -371 -20 -16 -16 -18 -25 -10 -40 10 -19 22
-20 345 -20 184 0 335 -1 335 -2 0 -2 -9 -32 -20 -66 -24 -77 -27 -216 -6
-286 l14 -47 -387 3 c-424 3 -417 2 -458 65 -17 25 -18 79 -21 753 -2 399 0
749 3 778 8 64 43 110 95 122 19 4 222 7 450 7 l415 -2 5 -223z m235 -22 l150
-150 -153 0 -152 0 0 150 c0 83 1 150 3 150 1 0 70 -67 152 -150z m309 -909
c76 -30 185 -135 221 -213 51 -111 49 -254 -5 -364 -37 -75 -129 -165 -204
-200 -107 -49 -256 -48 -364 3 -76 35 -174 134 -210 210 -24 52 -27 69 -27
173 0 105 2 120 28 171 51 106 145 191 250 229 75 28 229 23 311 -9z"/>
<path d="M610 1890 c-16 -16 -18 -24 -10 -40 11 -20 20 -20 313 -18 l302 3 3
27 c3 22 -2 30 -23 38 -15 6 -140 10 -296 10 -257 0 -270 -1 -289 -20z"/>
<path d="M610 1590 c-16 -16 -18 -25 -10 -40 11 -20 21 -20 538 -18 l527 3 3
27 c3 22 -2 30 -23 38 -16 6 -215 10 -521 10 -483 0 -494 0 -514 -20z"/>
<path d="M616 1297 c-11 -8 -17 -22 -14 -38 l3 -24 513 -3 c352 -1 519 1 533
9 14 7 19 18 17 37 l-3 27 -515 3 c-414 2 -519 0 -534 -11z"/>
<path d="M1627 872 c-111 -111 -127 -141 -87 -162 18 -10 30 -2 95 61 l75 72
2 -214 3 -214 24 -3 c46 -7 51 15 51 237 l0 204 79 -77 c69 -66 83 -76 99 -67
44 24 36 40 -80 157 -71 73 -119 114 -133 114 -13 0 -60 -40 -128 -108z"/>
</g>
</svg>
