<?xml version="1.0" encoding="utf-8"?>
<!-- Generator: Adobe Illustrator 23.0.1, SVG Export Plug-In . SVG Version: 6.00 Build 0)  -->
<svg version="1.1" baseProfile="tiny" id="Layer_1" xmlns="http://www.w3.org/2000/svg" xmlns:xlink="http://www.w3.org/1999/xlink"
	 x="0px" y="0px" viewBox="0 0 453.6 66.6" xml:space="preserve">
<g>
	<path d="M453.6,51.5l-13.3-15l12.4-11.7h-5.1l-11.4,10.9v-30h-4.1v45.7h4.1V39.5l1.2-1.1l11.3,13H453.6z M428.2,49.1V45
		c-1.1,1.1-2.3,2-3.7,2.7c-1.4,0.7-3,1-4.9,1c-1.5,0-2.9-0.3-4.2-0.8c-1.3-0.5-2.4-1.3-3.3-2.3c-0.9-1-1.7-2.1-2.2-3.4
		c-0.5-1.3-0.8-2.7-0.8-4.2c0-1.5,0.3-2.9,0.8-4.2c0.5-1.3,1.3-2.4,2.2-3.3c0.9-0.9,2-1.7,3.3-2.2c1.3-0.5,2.6-0.8,4.1-0.8
		c0.9,0,1.7,0.1,2.5,0.3c0.8,0.2,1.6,0.4,2.3,0.8c0.7,0.3,1.4,0.7,2,1.1c0.6,0.4,1.2,0.9,1.6,1.4v-4.1c-1.2-1-2.5-1.7-3.9-2.2
		c-1.4-0.4-2.9-0.6-4.6-0.6c-2,0-3.9,0.3-5.6,1c-1.7,0.7-3.2,1.7-4.5,2.9c-1.3,1.2-2.3,2.7-3,4.4s-1.1,3.6-1.1,5.6
		c0,2.1,0.4,4,1.1,5.7c0.7,1.7,1.7,3.2,3,4.4c1.3,1.2,2.8,2.2,4.5,2.9c1.7,0.7,3.5,1,5.5,1c1.7,0,3.3-0.2,4.8-0.7
		C425.5,50.9,426.9,50.2,428.2,49.1 M398.1,35.9h-18.5c0.1-1.2,0.4-2.3,0.9-3.4c0.5-1,1.1-2,2-2.7s1.8-1.4,2.8-1.8
		c1.1-0.4,2.3-0.7,3.6-0.7c1.4,0,2.7,0.2,3.8,0.6c1.1,0.4,2,1,2.7,1.8c0.7,0.8,1.3,1.7,1.8,2.7C397.6,33.5,397.9,34.7,398.1,35.9
		 M402.1,38.7c0-2.2-0.3-4.2-0.9-5.9c-0.6-1.8-1.4-3.3-2.6-4.6c-1.1-1.3-2.5-2.3-4.2-3c-1.6-0.7-3.5-1.1-5.6-1.1
		c-2,0-3.8,0.4-5.4,1.1c-1.6,0.7-3,1.7-4.2,3c-1.2,1.3-2.1,2.7-2.7,4.4c-0.6,1.7-1,3.5-1,5.4c0,2,0.3,3.8,1,5.5
		c0.6,1.7,1.6,3.2,2.7,4.4c1.2,1.3,2.6,2.2,4.3,3c1.7,0.7,3.5,1.1,5.6,1.1c1.4,0,2.7-0.2,4-0.5c1.3-0.3,2.5-0.8,3.5-1.5
		c1.1-0.7,2.1-1.5,2.9-2.4c0.9-1,1.6-2.1,2.1-3.3l-3.4-0.9c-1,1.7-2.2,3-3.7,4c-1.5,1-3.2,1.5-5.2,1.5c-1.4,0-2.6-0.2-3.8-0.7
		c-1.2-0.5-2.2-1.2-3.1-2c-0.9-0.9-1.6-1.9-2.1-3.2c-0.5-1.3-0.8-2.7-0.8-4.2H402.1z M370.6,51.5V34.2c0-1.6-0.2-3.1-0.6-4.3
		c-0.4-1.3-1-2.3-1.8-3.2c-0.8-0.9-1.7-1.5-2.8-1.9c-1.1-0.4-2.4-0.7-3.8-0.7c-1.9,0-3.5,0.4-4.9,1.1c-1.4,0.8-2.5,1.8-3.3,3.2h-0.1
		V5.7h-4.1v45.7h4.1V37.1c0-1.4,0.2-2.6,0.5-3.8c0.3-1.2,0.8-2.2,1.4-3.1c0.6-0.9,1.4-1.5,2.3-2c0.9-0.5,1.9-0.7,3.1-0.7
		c1.2,0,2.1,0.2,2.9,0.5c0.8,0.4,1.4,0.9,1.9,1.5c0.5,0.6,0.8,1.4,1,2.4c0.2,0.9,0.3,2,0.3,3.2v16.4H370.6z M344.2,47.6v-5.1h-0.1
		c-0.7,0.9-1.6,1.6-2.6,2.3c-1,0.7-2.1,1.3-3.2,1.8c-1.2,0.5-2.3,0.9-3.5,1.1c-1.2,0.3-2.4,0.4-3.5,0.4c-1.6,0-3.2-0.2-4.7-0.6
		c-1.5-0.4-2.9-1-4.2-1.8c-1.3-0.8-2.5-1.7-3.6-2.7c-1.1-1.1-2-2.2-2.7-3.6c-0.8-1.3-1.3-2.7-1.8-4.2c-0.4-1.5-0.6-3-0.6-4.6
		c0-2.5,0.4-4.8,1.3-6.9c0.9-2.1,2.1-4,3.7-5.6c1.6-1.6,3.4-2.8,5.5-3.7c2.1-0.9,4.4-1.3,6.9-1.3c1.2,0,2.4,0.1,3.7,0.4
		c1.2,0.3,2.4,0.7,3.5,1.2c1.1,0.5,2.2,1.1,3.2,1.9c1,0.7,1.9,1.5,2.6,2.4h0.1v-5.2c-1.8-1.5-3.8-2.7-6-3.5S333.6,9,331.1,9
		c-2.1,0-4.1,0.3-6,0.8c-1.9,0.5-3.6,1.2-5.3,2.2c-1.6,0.9-3.1,2.1-4.4,3.4c-1.3,1.3-2.4,2.8-3.3,4.4c-0.9,1.6-1.6,3.3-2.1,5.2
		c-0.5,1.8-0.7,3.7-0.7,5.7c0,2,0.2,3.9,0.7,5.7c0.5,1.8,1.2,3.6,2.1,5.2c0.9,1.6,2,3.1,3.3,4.4c1.3,1.3,2.8,2.4,4.4,3.4
		c1.6,0.9,3.4,1.7,5.3,2.2c1.9,0.5,3.9,0.8,6.1,0.8c2.5,0,4.8-0.4,6.9-1.2C340.2,50.1,342.2,49,344.2,47.6 M303.4,24.8h-4.1v26.7
		h4.1V24.8z M303.7,14.8c-0.1-0.3-0.3-0.6-0.6-0.8c-0.2-0.2-0.5-0.4-0.8-0.5c-0.3-0.1-0.6-0.2-1-0.2c-0.7,0-1.4,0.2-1.9,0.7
		s-0.8,1.1-0.8,1.8c0,0.3,0.1,0.7,0.2,1c0.1,0.3,0.3,0.6,0.6,0.8s0.5,0.4,0.8,0.6c0.3,0.1,0.7,0.2,1,0.2c0.3,0,0.7-0.1,1-0.2
		c0.3-0.1,0.6-0.3,0.8-0.6c0.2-0.2,0.4-0.5,0.6-0.8c0.1-0.3,0.2-0.6,0.2-1C303.9,15.4,303.9,15.1,303.7,14.8 M289.5,42
		c-0.5,1.3-1.1,2.4-2,3.4c-0.8,1-1.9,1.8-3.1,2.3c-1.2,0.6-2.5,0.9-4,0.9c-1.6,0-2.9-0.3-4.1-0.9c-1.2-0.6-2.2-1.4-3-2.4
		c-0.8-1-1.4-2.1-1.8-3.4c-0.4-1.3-0.6-2.7-0.6-4.1c0-1.4,0.2-2.7,0.7-3.9c0.5-1.2,1.1-2.3,1.9-3.2c0.8-0.9,1.9-1.6,3.1-2.2
		c1.2-0.5,2.5-0.8,4-0.8c1.5,0,2.8,0.3,4,0.8c1.2,0.5,2.2,1.3,3.1,2.2c0.8,0.9,1.5,2,2,3.3c0.5,1.3,0.7,2.6,0.7,4
		C290.3,39.4,290,40.7,289.5,42 M293.1,32.5c-0.6-1.7-1.5-3.1-2.6-4.4c-1.1-1.2-2.5-2.2-4.1-2.9s-3.4-1.1-5.3-1.1
		c-1,0-1.9,0.1-2.9,0.3c-0.9,0.2-1.8,0.5-2.7,0.9c-0.9,0.4-1.6,0.9-2.4,1.5c-0.7,0.6-1.4,1.3-1.9,2h-0.1v-4.1h-4.1v41.8h4.1V47.1
		h0.1c0.5,0.8,1.1,1.5,1.8,2.1c0.7,0.6,1.5,1.1,2.3,1.6c0.9,0.4,1.8,0.7,2.7,1c1,0.2,1.9,0.3,2.9,0.3c1.9,0,3.7-0.4,5.3-1.1
		c1.6-0.7,3-1.7,4.1-3c1.1-1.3,2-2.8,2.7-4.5c0.6-1.7,1-3.6,1-5.6C294,36,293.7,34.1,293.1,32.5 M261.5,51.5v-3.8h-16.4V31.2H261
		v-3.7h-15.9v-14h16.4V9.7h-20.7v41.7H261.5z M217.8,28.7l0.9-3.9c-0.4-0.2-0.8-0.3-1.3-0.4c-0.4-0.1-0.9-0.2-1.4-0.2
		c-1.5,0-2.8,0.3-3.8,1c-1.1,0.7-1.9,1.7-2.5,3.2h-0.1v-3.6h-4.1v26.7h4.1V38c0-3.4,0.5-5.9,1.4-7.6c0.9-1.6,2.2-2.4,3.9-2.4
		c0.5,0,1,0.1,1.5,0.2C217,28.3,217.4,28.4,217.8,28.7 M196.5,35.9h-18.5c0.1-1.2,0.4-2.3,0.9-3.4c0.5-1,1.1-2,2-2.7
		c0.8-0.8,1.8-1.4,2.8-1.8c1.1-0.4,2.3-0.7,3.6-0.7c1.4,0,2.7,0.2,3.8,0.6c1.1,0.4,2,1,2.7,1.8c0.7,0.8,1.3,1.7,1.8,2.7
		C195.9,33.5,196.3,34.7,196.5,35.9 M200.5,38.7c0-2.2-0.3-4.2-0.9-5.9s-1.4-3.3-2.6-4.6c-1.1-1.3-2.5-2.3-4.2-3
		c-1.6-0.7-3.5-1.1-5.6-1.1c-2,0-3.8,0.4-5.4,1.1c-1.6,0.7-3,1.7-4.2,3c-1.2,1.3-2.1,2.7-2.7,4.4c-0.6,1.7-1,3.5-1,5.4
		c0,2,0.3,3.8,1,5.5c0.6,1.7,1.5,3.2,2.7,4.4c1.2,1.3,2.6,2.2,4.3,3c1.7,0.7,3.5,1.1,5.6,1.1c1.4,0,2.7-0.2,4-0.5
		c1.3-0.3,2.5-0.8,3.5-1.5c1.1-0.7,2.1-1.5,2.9-2.4c0.9-1,1.6-2.1,2.1-3.3l-3.4-0.9c-1,1.7-2.2,3-3.7,4c-1.5,1-3.2,1.5-5.2,1.5
		c-1.4,0-2.6-0.2-3.8-0.7c-1.2-0.5-2.2-1.2-3.1-2c-0.9-0.9-1.6-1.9-2.1-3.2c-0.5-1.3-0.8-2.7-0.8-4.2H200.5z M164.3,41.9
		c-0.4,1.3-1,2.5-1.9,3.5c-0.8,1-1.8,1.8-3,2.4c-1.2,0.6-2.6,0.9-4.1,0.9c-1.5,0-2.8-0.3-4-0.9c-1.2-0.6-2.2-1.4-3.1-2.4
		c-0.8-1-1.5-2.1-1.9-3.4c-0.5-1.3-0.7-2.6-0.7-4c0-1.5,0.2-2.9,0.7-4.2c0.4-1.3,1.1-2.4,1.9-3.3s1.8-1.6,3-2.1
		c1.2-0.5,2.5-0.8,4-0.8c1.5,0,2.8,0.3,4,0.8c1.2,0.5,2.2,1.3,3.1,2.2c0.8,0.9,1.5,2,2,3.2c0.5,1.2,0.7,2.5,0.7,3.9
		C164.9,39.2,164.7,40.6,164.3,41.9 M168.8,51.5V5.7h-4.1v23.4h-0.1c-0.5-0.8-1.2-1.5-1.9-2.1c-0.7-0.6-1.5-1.1-2.4-1.6
		c-0.8-0.4-1.7-0.7-2.7-1c-0.9-0.2-1.9-0.3-2.9-0.3c-2,0-3.8,0.4-5.5,1.1c-1.6,0.7-3,1.7-4.1,3c-1.1,1.3-2,2.7-2.6,4.4
		c-0.6,1.7-0.9,3.5-0.9,5.4c0,2,0.3,3.8,0.9,5.5c0.6,1.7,1.5,3.2,2.7,4.5c1.1,1.3,2.5,2.3,4.2,3c1.6,0.7,3.4,1.1,5.4,1.1
		c1,0,2-0.1,2.9-0.4c1-0.2,1.9-0.6,2.7-1.1c0.9-0.5,1.6-1,2.3-1.7c0.7-0.6,1.3-1.4,1.8-2.2h0.1v4.6H168.8z M132,41.9
		c-0.4,1.3-1,2.5-1.9,3.5c-0.8,1-1.8,1.8-3,2.4c-1.2,0.6-2.6,0.9-4.1,0.9c-1.5,0-2.8-0.3-4-0.9c-1.2-0.6-2.2-1.4-3.1-2.4
		c-0.8-1-1.5-2.1-1.9-3.4c-0.5-1.3-0.7-2.6-0.7-4c0-1.5,0.2-2.9,0.7-4.2c0.4-1.3,1.1-2.4,1.9-3.3c0.8-0.9,1.8-1.6,3-2.1
		c1.2-0.5,2.5-0.8,4-0.8c1.5,0,2.8,0.3,4,0.8c1.2,0.5,2.2,1.3,3.1,2.2c0.8,0.9,1.5,2,2,3.2c0.5,1.2,0.7,2.5,0.7,3.9
		C132.7,39.2,132.5,40.6,132,41.9 M136.5,51.5V5.7h-4.1v23.4h-0.1c-0.5-0.8-1.2-1.5-1.9-2.1s-1.5-1.1-2.4-1.6
		c-0.8-0.4-1.7-0.7-2.7-1c-0.9-0.2-1.9-0.3-2.9-0.3c-2,0-3.8,0.4-5.5,1.1c-1.6,0.7-3,1.7-4.1,3c-1.1,1.3-2,2.7-2.6,4.4
		c-0.6,1.7-0.9,3.5-0.9,5.4c0,2,0.3,3.8,0.9,5.5c0.6,1.7,1.5,3.2,2.7,4.5c1.1,1.3,2.5,2.3,4.2,3c1.6,0.7,3.4,1.1,5.4,1.1
		c1,0,2-0.1,2.9-0.4c1-0.2,1.9-0.6,2.7-1.1c0.9-0.5,1.6-1,2.3-1.7c0.7-0.6,1.3-1.4,1.8-2.2h0.1v4.6H136.5z M100.1,41.9
		c-0.4,1.3-1,2.5-1.8,3.5c-0.8,1-1.8,1.8-3,2.4c-1.2,0.6-2.5,0.9-4.1,0.9c-1.5,0-2.8-0.3-4-0.9c-1.2-0.6-2.2-1.4-3.1-2.4
		s-1.5-2.1-2-3.4c-0.5-1.3-0.7-2.6-0.7-4c0-1.5,0.2-2.8,0.6-4.1c0.4-1.3,1.1-2.4,1.9-3.3c0.8-0.9,1.8-1.7,3-2.2
		c1.2-0.6,2.5-0.8,4-0.8c1.5,0,2.8,0.3,4,0.8c1.2,0.5,2.2,1.3,3.1,2.2c0.8,0.9,1.5,2,2,3.3c0.5,1.2,0.7,2.6,0.7,4
		C100.7,39.2,100.5,40.6,100.1,41.9 M104.6,51.5V24.8h-4v4.4h-0.1c-0.5-0.8-1.1-1.5-1.8-2.1s-1.5-1.1-2.3-1.6
		c-0.9-0.4-1.8-0.8-2.7-1c-0.9-0.2-1.9-0.3-2.9-0.3c-2,0-3.8,0.4-5.4,1.1c-1.6,0.7-3,1.7-4.1,2.9c-1.1,1.2-2,2.7-2.7,4.4
		c-0.6,1.7-0.9,3.5-0.9,5.4c0,2,0.3,3.9,1,5.6c0.6,1.7,1.5,3.2,2.7,4.5c1.2,1.3,2.5,2.2,4.1,3c1.6,0.7,3.4,1.1,5.3,1.1
		c1,0,1.9-0.1,2.9-0.4c1-0.2,1.9-0.6,2.8-1c0.9-0.5,1.7-1,2.4-1.7c0.7-0.7,1.3-1.4,1.7-2.2h0.1v4.6H104.6z M71.6,5.7h-4.1v45.7h4.1
		V5.7z"/>
	<path fill="#00B8DE" d="M30.7,61.4c17,0,30.7-13.7,30.7-30.7S47.7,0,30.7,0S0,13.7,0,30.7S13.7,61.4,30.7,61.4"/>
	<path fill="#FFFFFF" d="M41.2,42.9c-0.4,1-1,1.9-1.8,2.6c-0.8,0.7-1.8,1.3-3.1,1.7c-1.2,0.4-2.7,0.6-4.4,0.6h-6.5V31.9h6.4
		c1.7,0,3.2,0.2,4.4,0.6c1.3,0.4,2.3,0.9,3.1,1.6c0.8,0.7,1.4,1.5,1.8,2.4s0.6,2,0.6,3.1C41.7,40.8,41.6,41.9,41.2,42.9 M38.7,23.7
		c-0.4,0.9-0.9,1.8-1.6,2.4c-0.7,0.7-1.6,1.2-2.6,1.6c-1.1,0.4-2.3,0.6-3.7,0.6h-5.4V13.5h4.7c3,0,5.2,0.6,6.8,1.8
		c1.5,1.2,2.3,2.9,2.3,5.2C39.2,21.7,39.1,22.7,38.7,23.7 M45.4,36.2c-0.4-1.1-0.9-2.1-1.6-3c-0.7-0.9-1.6-1.7-2.6-2.3
		c-1.1-0.6-2.3-1.1-3.7-1.4v-0.1c2-0.9,3.4-2.1,4.4-3.7c1-1.6,1.5-3.3,1.5-5.3c0-1.6-0.3-3.1-0.8-4.4c-0.6-1.3-1.4-2.4-2.4-3.3
		c-1.1-0.9-2.4-1.6-3.9-2.1c-1.6-0.5-3.3-0.7-5.3-0.7h-9.7v41.7h11.5c2.1,0,4-0.3,5.7-0.9c1.6-0.6,3-1.4,4.2-2.4
		c1.1-1,2-2.3,2.6-3.7c0.6-1.4,0.9-3,0.9-4.7C45.9,38.5,45.8,37.4,45.4,36.2"/>
</g>
</svg>
