<svg xmlns="http://www.w3.org/2000/svg" width="19" height="18.999" viewBox="0 0 19 18.999"><defs><style>.a{fill:#000;}</style></defs><g transform="translate(0 -531.001)"><path class="a" d="M10.538,540.764l3.316-3.349a.682.682,0,1,0-.965-.963L9.571,539.8l-3.348-3.317a.674.674,0,0,0-.482-.2h0a.655.655,0,0,0-.462.182.613.613,0,0,0-.22.449.714.714,0,0,0,.2.535l3.348,3.316-3.35,3.317a.752.752,0,0,0-.207.481.685.685,0,0,0,.225.5.778.778,0,0,0,.491.184.494.494,0,0,0,.067,0,.59.59,0,0,0,.4-.2L9.573,541.7l3.351,3.352a.682.682,0,1,0,.963-.966Z"/><path class="a" d="M18.817,538.646A9.5,9.5,0,0,0,1.6,535.222a9.5,9.5,0,1,0,16.676,8.914,9.5,9.5,0,0,0,.54-5.49Zm-1.47,3.415a8.145,8.145,0,0,1-.456,1.5,8.009,8.009,0,0,1-4.329,4.329,8,8,0,0,1-8.719-1.734,8.016,8.016,0,0,1-1.734-2.595,8,8,0,0,1,8.952-10.909,8.1,8.1,0,0,1,1.5.456,8.013,8.013,0,0,1,1.382.739,7.984,7.984,0,0,1,2.208,2.208A8,8,0,0,1,17.5,540.5,8.114,8.114,0,0,1,17.347,542.061Z"/></g></svg>
