<svg xmlns="http://www.w3.org/2000/svg" width="20.5" height="20.5" viewBox="0 0 20.5 20.5"><defs><style>.a{fill:currentColor;}</style></defs><g transform="translate(-754.75 -529.75)"><path class="a" d="M763.563,545.573a.62.62,0,0,0,.878,0l3.678-3.679a.62.62,0,0,0-.877-.877l-3.235,3.235-1.25-1.24a.621.621,0,0,0-.878.878Z"/><path class="a" d="M774.632,532.683h-4.109v-2.315a.618.618,0,0,0-1.236,0v2.315h-8.563v-2.315a.618.618,0,0,0-1.236,0v2.315h-4.12a.618.618,0,0,0-.618.617v16.333a.618.618,0,0,0,.618.617h19.264a.618.618,0,0,0,.618-.617V533.3A.618.618,0,0,0,774.632,532.683Zm-.618,4.914v11.418H755.986V537.6Zm0-3.679v2.432H755.986v-2.432Z"/></g></svg>
