<svg xmlns="http://www.w3.org/2000/svg" width="14.21" height="14.958" viewBox="0 0 14.21 14.958"><defs><style>.a{fill:#a4a4a4;}</style></defs><path class="a" d="M391.8,318.361l-1.9-1.992a1.143,1.143,0,0,0-.841-.369,1.121,1.121,0,0,0-.841.369l-1.27,1.334a.752.752,0,0,0-.741.164l-.547.574a.815.815,0,0,0-.138.862l-6.14,6.445c-.019.02-.04.042-.04.059v.021c-.019.019-.019.042-.041.059l-1.092,3.491-.119.369-.119.368c0,.02,0,.043-.019.043a.7.7,0,0,0,.057.471.554.554,0,0,0,.057.1.621.621,0,0,0,.49.227h.135c.019,0,.04,0,.04-.02l.49-.164,3.52-1.209a.345.345,0,0,0,.138-.083l6.159-6.464a.5.5,0,0,0,.254.042.691.691,0,0,0,.508-.227l.547-.573a.763.763,0,0,0,.157-.8l1.27-1.334A1.262,1.262,0,0,0,391.8,318.361Zm-5.789,1.518,1,1.045-5.846,6.157-1-1.067Zm-6.548,10.012-.49-.513.841-2.668,1.1,1.149,1.1,1.15Zm3.206-1.229-.995-1.047,5.843-6.155,1,1.047Zm6.763-6.464c-.019-.02-.019-.043-.04-.043l-3.029-3.2a.353.353,0,0,0-.1-.082l.429-.471.041.042,3.071,3.224c.019.02.041.042.057.042Zm1.857-2.586-1.23,1.292-2.561-2.708,1.231-1.291a.468.468,0,0,1,.665,0l1.9,1.989A.558.558,0,0,1,391.285,319.612Z" transform="translate(-377.934 -316)"/></svg>