<svg xmlns="http://www.w3.org/2000/svg" width="45" height="45" viewBox="0 0 45 45"><defs><style>.a{fill:#9e9e9e;}.b{fill:#fff;}</style></defs><g transform="translate(-521 -179)"><path class="a" d="M543.5,224q-1.105,0-2.205-.108t-2.185-.324q-1.083-.216-2.141-.537t-2.079-.744q-1.022-.423-2-.944T531,220.208q-.919-.613-1.774-1.315t-1.636-1.483q-.782-.781-1.483-1.636T524.792,214q-.613-.918-1.135-1.894t-.944-2q-.423-1.02-.744-2.079t-.537-2.141q-.215-1.084-.324-2.185T521,201.5q0-1.105.108-2.205t.324-2.185q.216-1.083.537-2.141t.744-2.079q.423-1.021.944-2T524.792,189q.613-.92,1.315-1.774t1.483-1.636q.781-.781,1.636-1.483T531,182.792q.918-.614,1.894-1.135t2-.944q1.02-.423,2.079-.744t2.141-.537q1.085-.215,2.185-.324T543.5,179q1.105,0,2.205.108t2.185.324q1.083.216,2.141.537t2.079.744q1.022.423,2,.944T556,182.792q.919.613,1.774,1.315t1.636,1.483q.782.781,1.483,1.636T562.208,189q.613.918,1.135,1.894t.944,2q.423,1.02.744,2.079t.537,2.141q.215,1.084.324,2.185T566,201.5q0,1.105-.108,2.205t-.324,2.185q-.216,1.083-.537,2.141t-.744,2.079q-.423,1.021-.944,2T562.208,214q-.613.92-1.315,1.774t-1.483,1.636q-.781.781-1.636,1.483T556,220.208q-.918.614-1.894,1.135t-2,.944q-1.02.423-2.079.744t-2.141.537q-1.085.215-2.185.324T543.5,224Z"/><path class="b" d="M545.1,210.9a1.992,1.992,0,0,1-1.539-.721l-7.611-9.16,7.642-8.758a2,2,0,1,1,3.013,2.63l-5.4,6.192,5.434,6.539A2,2,0,0,1,545.1,210.9Z"/></g></svg>