<svg xmlns="http://www.w3.org/2000/svg" width="80.683" height="16.417" viewBox="0 0 80.683 16.417"><defs><style>.a{fill:currentColor;}.nx-logo-blue{fill:#02b7dd;}</style></defs><g transform="translate(-102.459 -993.941)"><path class="a" d="M173.057,993.941a4.033,4.033,0,0,0,1.325,1.62,4.406,4.406,0,0,0,2.576.736,4.257,4.257,0,0,0,2.577-.736,4.033,4.033,0,0,0,1.325-1.62h1.914c-.074.368-.221.663-.294.957a4.775,4.775,0,0,1-2.062,2.282,5.669,5.669,0,0,1-1.178.516,5.671,5.671,0,0,1,1.178.515,5.168,5.168,0,0,1,2.062,2.282,11.533,11.533,0,0,1,.662,4.491v1.251h-1.767v-1.03a16.631,16.631,0,0,0-.221-3.313,3.49,3.49,0,0,0-1.472-2.061,4.4,4.4,0,0,0-2.576-.737,4.251,4.251,0,0,0-2.577.737,3.764,3.764,0,0,0-1.472,1.914,14.822,14.822,0,0,0-.3,3.46v1.03h-1.84v-1.4a10.955,10.955,0,0,1,.662-4.344,4.775,4.775,0,0,1,2.062-2.282,5.671,5.671,0,0,1,1.178-.515,5.67,5.67,0,0,1-1.178-.516,5.168,5.168,0,0,1-2.062-2.282,3.663,3.663,0,0,1-.294-.957Z"/><path class="a" d="M154.433,999.168h7.729v1.767h-7.729a3.685,3.685,0,0,0,.662,1.767,3.765,3.765,0,0,0,1.914,1.472,14.843,14.843,0,0,0,3.46.294h3.166v1.841h-3.46a10.937,10.937,0,0,1-4.344-.663,4.772,4.772,0,0,1-2.282-2.061,6.084,6.084,0,0,1-.81-3.386,7.283,7.283,0,0,1,.81-3.46,5.347,5.347,0,0,1,2.356-2.061,9.194,9.194,0,0,1,4.343-.737h3.313v1.767H160.4a11.286,11.286,0,0,0-3.312.295,3.831,3.831,0,0,0-2.061,1.472,9.063,9.063,0,0,0-.589,1.693"/><path class="a" d="M118.507,993.941v4.491a11.627,11.627,0,0,0,.294,3.313,3.5,3.5,0,0,0,1.472,2.061,4.412,4.412,0,0,0,2.577.736,4.259,4.259,0,0,0,2.577-.736,3.77,3.77,0,0,0,1.472-1.914,14.842,14.842,0,0,0,.294-3.46v-4.491h1.767V998.8a10.953,10.953,0,0,1-.662,4.343,4.775,4.775,0,0,1-2.062,2.282,6.767,6.767,0,0,1-3.386.81,6.571,6.571,0,0,1-3.386-.81,5.168,5.168,0,0,1-2.062-2.282,11.531,11.531,0,0,1-.662-4.49v-4.712Z"/><path class="a" d="M112.912,1006.235v-4.49a11.622,11.622,0,0,0-.294-3.313,3.5,3.5,0,0,0-1.472-2.061,4.4,4.4,0,0,0-2.577-.736,4.247,4.247,0,0,0-2.576.736,3.766,3.766,0,0,0-1.473,1.914,14.842,14.842,0,0,0-.294,3.46v4.49h-1.767v-4.858a10.937,10.937,0,0,1,.663-4.344,4.768,4.768,0,0,1,2.061-2.282,7.482,7.482,0,0,1,6.772,0,5.168,5.168,0,0,1,2.062,2.282,11.533,11.533,0,0,1,.662,4.491v4.711Z"/><path class="a" d="M146.7,1002.7a3.489,3.489,0,0,0,1.914,1.472,8.048,8.048,0,0,0,3.165.294v1.767a11.361,11.361,0,0,1-4.416-.662,4.781,4.781,0,0,1-2.283-2.062,6.777,6.777,0,0,1-.809-3.386v-6.184h1.766v6.037a5,5,0,0,0,.663,2.724"/><path class="nx-logo-blue" d="M166.062,993.941h2.5l-.515,12.294h-1.472Z"/><path class="nx-logo-blue" d="M167.314,1007.855a1.257,1.257,0,1,1-.884.368,1.218,1.218,0,0,1,.884-.368"/><path class="a" d="M141.918,995.782h-3.166a11.3,11.3,0,0,0-3.312.294,3.839,3.839,0,0,0-2.062,1.473,4.878,4.878,0,0,0,0,5.153,3.773,3.773,0,0,0,1.914,1.472,14.856,14.856,0,0,0,3.46.294h3.166v1.841h-3.46a10.931,10.931,0,0,1-4.343-.663,4.774,4.774,0,0,1-2.283-2.061,6.084,6.084,0,0,1-.809-3.386,7.073,7.073,0,0,1,.809-3.46,5.353,5.353,0,0,1,2.356-2.061,9.542,9.542,0,0,1,4.417-.737h3.313Z"/></g></svg>
