<?xml version="1.0" standalone="no"?>
<!DOCTYPE svg PUBLIC "-//W3C//DTD SVG 20010904//EN"
 "http://www.w3.org/TR/2001/REC-SVG-20010904/DTD/svg10.dtd">
<svg version="1.0" xmlns="http://www.w3.org/2000/svg"
 width="256.000000pt" height="256.000000pt" viewBox="0 0 256.000000 256.000000"
 preserveAspectRatio="xMidYMid meet">

<g transform="translate(0.000000,256.000000) scale(0.100000,-0.100000)"
fill="currentColor" stroke="none">
<path d="M222 2279 c-26 -13 -55 -39 -70 -62 l-27 -41 -3 -719 -2 -720 25 -43
c15 -26 43 -54 69 -69 l43 -25 621 0 c599 0 621 -1 627 -19 13 -42 129 -144
205 -180 73 -35 78 -36 195 -36 117 0 122 1 196 36 102 49 179 126 228 228 35
75 36 78 36 201 0 123 -1 126 -36 200 -26 54 -54 93 -102 141 l-66 65 -3 470
-3 470 -24 36 c-13 19 -40 46 -59 59 l-36 24 -885 3 -886 2 -43 -21z m1801
-72 c63 -41 62 -29 65 -504 1 -238 1 -433 0 -433 -2 0 -25 7 -52 15 -27 8 -73
15 -103 15 -54 0 -54 0 -196 115 -98 80 -149 115 -167 115 -19 0 -77 -47 -234
-190 l-209 -189 -49 41 c-27 22 -88 74 -136 114 -57 49 -96 74 -112 74 -18 0
-113 -71 -330 -246 l-305 -246 -3 578 c-2 319 0 603 3 632 8 64 43 109 95 122
19 4 411 8 870 7 780 -2 838 -3 863 -20z m-348 -843 l93 -77 -66 -32 c-119
-57 -216 -175 -252 -308 l-16 -57 -119 101 c-66 56 -121 102 -123 104 -5 4
372 345 381 345 4 0 50 -34 102 -76z m-539 -326 l298 -253 12 -55 c7 -30 13
-56 14 -57 1 -9 -1141 -1 -1172 7 -43 12 -90 64 -86 93 3 20 601 514 625 516
6 1 145 -113 309 -251z m929 150 c124 -65 207 -178 224 -304 35 -259 -190
-482 -445 -442 -132 21 -263 129 -304 253 -31 93 -26 216 12 297 46 99 143
185 248 219 14 5 68 7 120 6 80 -3 103 -7 145 -29z"/>
<path d="M995 2031 c-162 -74 -183 -302 -37 -404 44 -30 52 -32 133 -32 78 0
89 3 127 28 22 16 53 47 69 69 25 38 28 49 28 127 0 81 -2 89 -32 133 -62 88
-191 124 -288 79z m173 -81 c53 -32 74 -75 69 -143 -3 -51 -8 -62 -40 -94 -32
-32 -43 -37 -94 -40 -46 -3 -65 0 -91 16 -96 61 -96 202 0 261 43 26 113 26
156 0z"/>
<path d="M1796 997 c-81 -76 -98 -96 -95 -117 7 -44 42 -37 107 19 l57 50 5
-199 c3 -129 9 -203 16 -210 7 -7 22 -10 35 -8 l24 3 5 212 5 213 62 -56 c70
-62 106 -69 111 -23 3 22 -13 41 -95 118 -56 52 -107 91 -118 91 -11 0 -63
-40 -119 -93z"/>
</g>
</svg>
