<svg xmlns="http://www.w3.org/2000/svg" width="40" height="40" viewBox="0 0 40 40"><defs><style>.a{fill:#fff;}</style></defs><path class="a" d="M38,97a20.023,20.023,0,0,0-13.527,34.764l.654.581c.073,0,.073.073.146.073a10.266,10.266,0,0,0,1.091.8c.145.073.218.146.363.218a10.3,10.3,0,0,0,1.164.728c.073.072.145.072.291.145.436.218.873.509,1.382.727a.071.071,0,0,1,.072.073,18.162,18.162,0,0,0,4.873,1.527h.146c.509.073,1.09.146,1.6.219h.218A4.968,4.968,0,0,0,38,137a11.74,11.74,0,0,0,1.6-.073h.218c.509-.072,1.091-.145,1.6-.218h.146a18.506,18.506,0,0,0,4.8-1.527.255.255,0,0,0,.145-.073l1.309-.654c.073-.073.218-.146.291-.219a10.145,10.145,0,0,0,1.164-.727,1.576,1.576,0,0,0,.363-.291,8.2,8.2,0,0,0,.946-.727c.073-.073.145-.073.218-.146l.655-.581A19.977,19.977,0,0,0,38,97Zm10.909,34.982a3.017,3.017,0,0,1-.8.509c-.145.073-.218.145-.364.218-.363.218-.727.436-1.018.582-.072.073-.145.073-.218.145a15.753,15.753,0,0,1-2.545,1.091h-.073c-.436.146-.946.291-1.382.437a8.64,8.64,0,0,1-1.454.291h-.073a8.141,8.141,0,0,1-1.382.145h-.218c-.437,0-.873.073-1.382.073a8.776,8.776,0,0,1-1.382-.073H36.4c-.436-.073-.945-.073-1.382-.145h-.073a13.586,13.586,0,0,1-2.836-.728h-.073c-.436-.145-.945-.363-1.381-.509a9.315,9.315,0,0,1-1.237-.582c-.073,0-.073-.072-.145-.072l-1.091-.655c-.073-.073-.218-.145-.291-.218a10.408,10.408,0,0,1-.946-.655l-.072-.072a.071.071,0,0,0,.072-.073l5.746-3.127a3.006,3.006,0,0,0,1.6-2.691v-2.618l-.146-.219a12.354,12.354,0,0,1-2.181-4.509l-.146-.291-.291-.145a1.162,1.162,0,0,1-.582-1.018v-2.546a1.036,1.036,0,0,1,.437-.872l.218-.219v-4.145a4.5,4.5,0,0,1,1.018-3.2c1.018-1.164,2.837-1.818,5.382-1.818,2.473,0,4.291.582,5.309,1.818a4.434,4.434,0,0,1,1.018,3.2v4.145l.218.219a1.135,1.135,0,0,1,.437.872v2.546a1.244,1.244,0,0,1-.873,1.163l-.364.146-.145.363a13.092,13.092,0,0,1-1.818,3.637,7,7,0,0,1-.509.654l-.146.219v2.69a3.1,3.1,0,0,0,1.673,2.764l6.182,3.055c.073,0,.073.072.145.072C49.055,131.909,48.982,131.982,48.909,131.982Zm1.382-1.091a2.92,2.92,0,0,0-.655-.364l-6.181-3.054a1.527,1.527,0,0,1-.873-1.455v-2.182a4.008,4.008,0,0,0,.436-.581,13.719,13.719,0,0,0,1.891-3.71,2.636,2.636,0,0,0,1.527-2.4V114.6a2.605,2.605,0,0,0-.654-1.745v-3.491a5.921,5.921,0,0,0-1.382-4.291c-1.309-1.455-3.491-2.255-6.4-2.255s-5.091.8-6.473,2.327a6.147,6.147,0,0,0-1.382,4.291v3.419a2.605,2.605,0,0,0-.654,1.745v2.545a2.709,2.709,0,0,0,.945,2.037,13.488,13.488,0,0,0,2.255,4.654v2.109a1.6,1.6,0,0,1-.873,1.455l-5.673,3.055a2.534,2.534,0,0,0-.581.363A18.832,18.832,0,0,1,19.455,117a18.545,18.545,0,1,1,30.836,13.891Z" transform="translate(-18 -97)"/></svg>